Coordinates
version=1
nRows=9
nColumns=63
inDegrees=yes

Units are S.I. units (second, meters, Newtons, ...)
If the header above contains a line with 'inDegrees', this indicates whether rotational values are in degrees (yes) or radians (no).

endheader
time	pelvis_tilt	pelvis_list	pelvis_rotation	pelvis_tx	pelvis_ty	pelvis_tz	hip_flexion_r	hip_adduction_r	hip_rotation_r	knee_angle_r	knee_angle_r_beta	ankle_angle_r	subtalar_angle_r	mtp_angle_r	hip_flexion_l	hip_adduction_l	hip_rotation_l	knee_angle_l	knee_angle_l_beta	ankle_angle_l	subtalar_angle_l	mtp_angle_l	L5_S1_Flex_Ext	L5_S1_Lat_Bending	L5_S1_axial_rotation	L4_L5_Flex_Ext	L4_L5_Lat_Bending	L4_L5_axial_rotation	L3_L4_Flex_Ext	L3_L4_Lat_Bending	L3_L4_axial_rotation	L2_L3_Flex_Ext	L2_L3_Lat_Bending	L2_L3_axial_rotation	L1_L2_Flex_Ext	L1_L2_Lat_Bending	L1_L2_axial_rotation	L1_T12_Flex_Ext	L1_T12_Lat_Bending	L1_T12_axial_rotation	Abs_r3	Abs_r2	Abs_r1	Abs_t1	Abs_t2	neck_flexion	neck_bending	neck_rotation	arm_flex_r	arm_add_r	arm_rot_r	elbow_flex_r	pro_sup_r	wrist_flex_r	wrist_dev_r	arm_flex_l	arm_add_l	arm_rot_l	elbow_flex_l	pro_sup_l	wrist_flex_l	wrist_dev_l
2.437500	-2.831999	-10.081160	86.771008	0.321154	0.930770	0.656195	2.567237	0.662083	14.584579	6.721930	0.117320	26.944856	-1.893105	0.000000	4.220497	0.161806	-2.658274	12.751688	0.222559	29.490764	-9.200109	0.000000	-0.156862	0.040738	0.341399	-0.291308	0.054181	0.362737	-0.257708	0.099050	0.362737	-0.179277	0.099050	0.298724	-0.145662	0.083072	0.277387	-0.089631	0.063103	0.256050	-1.120446	0.460834	1.898761	0.000000	0.000000	2.664029	-2.305419	5.899688	-21.085538	-15.656078	3.045011	124.755019	86.759291	-6.080428	7.354208	-16.668630	-16.403586	16.960211	113.843492	74.147891	1.507634	4.467161
2.458333	-2.967408	-10.283086	86.073400	0.322037	0.930248	0.657693	2.977532	0.574901	15.094616	6.821093	0.119051	27.056018	-1.645423	0.000000	4.511997	0.234747	-2.894125	12.799343	0.223391	29.433936	-9.610326	0.000000	-0.126954	0.060787	0.336237	-0.235767	0.080846	0.357251	-0.208573	0.147797	0.357251	-0.145096	0.147797	0.294207	-0.117890	0.123956	0.273192	-0.072542	0.094158	0.252177	-0.906821	0.687630	1.870047	0.000000	0.000000	3.346662	-2.720841	7.034733	-20.934785	-15.922833	4.505852	123.769609	86.786214	-4.597472	7.224260	-15.650213	-16.398937	18.739795	112.985964	74.440854	2.705890	4.710726
2.479167	-3.117155	-10.503242	85.301800	0.322937	0.929723	0.659190	3.426597	0.473090	15.566338	6.973401	0.121709	27.128627	-1.259300	0.000000	4.830347	0.315086	-3.210002	12.876959	0.224745	29.384569	-10.039020	0.000000	-0.093599	0.078784	0.364218	-0.173823	0.104783	0.386982	-0.153774	0.191555	0.386982	-0.106975	0.191555	0.318691	-0.086916	0.160656	0.295927	-0.053483	0.122036	0.273163	-0.668571	0.891221	2.025671	0.000000	0.000000	4.016619	-3.168656	7.924833	-20.804844	-16.219965	5.892438	122.764006	86.856356	-3.139975	7.067654	-14.546919	-16.489625	20.572591	112.051658	74.964147	3.985561	4.627900
2.500000	-3.271589	-10.701960	84.531253	0.323807	0.929232	0.660633	3.862839	0.361048	15.947933	7.183596	0.125377	27.184222	-0.766866	0.000000	5.138888	0.402646	-3.522613	12.991458	0.226744	29.372590	-10.472819	0.000000	-0.062534	0.096196	0.390909	-0.116132	0.127941	0.415341	-0.102738	0.233891	0.415341	-0.071470	0.233891	0.342046	-0.058069	0.196163	0.317614	-0.035732	0.149008	0.293182	-0.446676	1.088188	2.174121	0.000000	0.000000	4.655635	-3.636838	8.751126	-20.651871	-16.550306	7.276919	121.748609	86.984609	-1.736543	6.956001	-13.521757	-16.572402	22.260319	111.109171	75.711573	5.331817	4.168598
2.520833	-3.434541	-10.876836	83.715949	0.324669	0.928806	0.662105	4.292391	0.238732	16.290180	7.439234	0.129839	27.216765	-0.168078	0.000000	5.429441	0.496291	-3.895226	13.120688	0.228999	29.388581	-10.883000	0.000000	-0.035587	0.112122	0.426910	-0.066088	0.149123	0.453592	-0.058465	0.272614	0.453592	-0.040672	0.272614	0.373546	-0.033046	0.228640	0.346864	-0.020334	0.173677	0.320182	-0.254192	1.268349	2.374344	0.000000	0.000000	5.237415	-4.102848	9.493555	-20.487851	-16.901180	8.632994	120.715066	87.172875	-0.495942	6.774384	-12.589972	-16.580181	23.772285	110.158641	76.665945	6.682204	3.301489
2.541667	-3.618860	-11.026803	82.875333	0.325572	0.928446	0.663629	4.702746	0.097521	16.603258	7.706304	0.134500	27.236316	0.512874	0.000000	5.705605	0.600245	-4.335854	13.267269	0.231558	29.433903	-11.238944	0.000000	-0.013311	0.123221	0.470543	-0.024720	0.163884	0.499952	-0.021869	0.299599	0.499952	-0.015213	0.299599	0.411725	-0.012361	0.251272	0.382316	-0.007606	0.190869	0.352907	-0.095081	1.393899	2.617018	0.000000	0.000000	5.747711	-4.503381	10.164183	-20.292139	-17.227140	9.947807	119.653153	87.404566	0.539121	6.586544	-11.784597	-16.497415	25.004570	109.225753	77.856558	8.168785	2.216878
2.562500	-3.808348	-11.165955	82.030807	0.326457	0.928153	0.665234	5.102449	-0.046895	16.872809	7.961068	0.138947	27.245397	1.273166	0.000000	5.981509	0.701339	-4.811611	13.421665	0.234252	29.478630	-11.582335	0.000000	0.005232	0.132018	0.526784	0.009716	0.175584	0.559708	0.008595	0.320989	0.559708	0.005979	0.320989	0.460936	0.004858	0.269212	0.428012	0.002989	0.204496	0.395088	0.037370	1.493418	2.929813	0.000000	0.000000	6.196904	-4.830773	10.806180	-20.077124	-17.533337	11.191727	118.560555	87.673608	1.344843	6.296398	-11.085462	-16.349170	25.995887	108.302286	79.238457	9.683652	1.013580
2.583333	-4.006502	-11.288969	81.199984	0.327371	0.927915	0.666867	5.468428	-0.200528	17.114568	8.165947	0.142523	27.250948	2.084906	0.000000	6.243155	0.800290	-5.349899	13.571211	0.236862	29.522690	-11.862499	0.000000	0.019913	0.136228	0.605130	0.036981	0.181183	0.642951	0.032716	0.331224	0.642951	0.022759	0.331224	0.529489	0.018492	0.277795	0.491668	0.011378	0.211016	0.453848	0.142239	1.541033	3.365553	0.000000	0.000000	6.569672	-5.080081	11.282724	-19.923987	-17.763273	12.275376	117.498162	87.967575	1.973899	6.089221	-10.443670	-16.200062	26.819171	107.402312	80.798043	11.272094	-0.074495
2.604167	-4.202538	-11.409660	80.350522	0.328344	0.927712	0.668497	5.819798	-0.347220	17.374533	8.327376	0.145340	27.256686	2.913541	0.000000	6.488619	0.891111	-5.906140	13.693906	0.239004	29.526633	-12.187393	0.000000	0.032435	0.137293	0.718308	0.060236	0.182599	0.763203	0.053288	0.333814	0.763203	0.037070	0.333814	0.628520	0.030120	0.279967	0.583625	0.018534	0.212666	0.538731	0.231683	1.553083	3.995015	0.000000	0.000000	6.871845	-5.244003	11.552597	-19.887162	-17.913856	13.126797	116.515430	88.268893	2.584778	6.025757	-9.791298	-16.088195	27.584679	106.523364	82.337490	12.952009	-0.832070
